<svg width="162" height="66" viewBox="0 0 162 66" fill="none" xmlns="http://www.w3.org/2000/svg">
<g id="pngtree-green-leaves-vector-icon-design-on-white-background-various-shapes-of-png-image_5224035-transformed-removebg-preview 1 (Traced)" filter="url(#filter0_dii_270_3)">
<path fill-rule="evenodd" clip-rule="evenodd" d="M11.0397 -41.5289C42.5226 23.3635 75.1354 54.8154 106.722 50.7478C116.067 49.5442 125.26 45.4145 134.986 38.052C138.482 35.4057 145.77 28.7605 146.629 27.4363C146.94 26.9562 144.057 26.3401 138.322 25.6603C107.024 21.95 83.6813 13.7201 70.8448 1.86849C65.3222 -3.2299 65.0814 -4.34069 70.2967 -0.654403C87.2386 11.3184 111.203 16.722 140.098 15.0845C144.949 14.8099 146.584 14.4932 146.789 13.7897C147.332 11.928 147.031 5.01565 146.141 -1.07454C145.32 -6.68837 144.927 -7.96679 142.18 -13.9508C140.471 -17.6731 138.191 -21.8537 136.994 -23.4586C132.021 -30.1267 122.272 -37.3489 113.067 -41.1847C98.1681 -47.3928 81.471 -50.0289 57.2925 -49.99C33.0492 -49.9513 24.7413 -51.3186 10.686 -57.6592C6.14831 -59.7062 2.41564 -61.2894 2.3922 -61.177C2.30741 -60.7701 8.19495 -47.3928 11.0397 -41.5289Z" fill="#02FA39"/>
</g>
<defs>
<filter id="filter0_dii_270_3" x="-6.60864" y="-70.1826" width="168.669" height="137.28" filterUnits="userSpaceOnUse" color-interpolation-filters="sRGB">
<feFlood flood-opacity="0" result="BackgroundImageFix"/>
<feColorMatrix in="SourceAlpha" type="matrix" values="0 0 0 0 0 0 0 0 0 0 0 0 0 0 0 0 0 0 127 0" result="hardAlpha"/>
<feOffset dx="6" dy="6"/>
<feGaussianBlur stdDeviation="4"/>
<feComposite in2="hardAlpha" operator="out"/>
<feColorMatrix type="matrix" values="0 0 0 0 0.0235294 0 0 0 0 0.478431 0 0 0 0 0.27451 0 0 0 0.3 0"/>
<feBlend mode="normal" in2="BackgroundImageFix" result="effect1_dropShadow_270_3"/>
<feBlend mode="normal" in="SourceGraphic" in2="effect1_dropShadow_270_3" result="shape"/>
<feColorMatrix in="SourceAlpha" type="matrix" values="0 0 0 0 0 0 0 0 0 0 0 0 0 0 0 0 0 0 127 0" result="hardAlpha"/>
<feOffset dx="-10" dy="-11"/>
<feGaussianBlur stdDeviation="4.5"/>
<feComposite in2="hardAlpha" operator="arithmetic" k2="-1" k3="1"/>
<feColorMatrix type="matrix" values="0 0 0 0 0.0235294 0 0 0 0 0.478431 0 0 0 0 0.27451 0 0 0 0.7 0"/>
<feBlend mode="normal" in2="shape" result="effect2_innerShadow_270_3"/>
<feColorMatrix in="SourceAlpha" type="matrix" values="0 0 0 0 0 0 0 0 0 0 0 0 0 0 0 0 0 0 127 0" result="hardAlpha"/>
<feOffset dx="15" dy="16"/>
<feGaussianBlur stdDeviation="9.5"/>
<feComposite in2="hardAlpha" operator="arithmetic" k2="-1" k3="1"/>
<feColorMatrix type="matrix" values="0 0 0 0 0.0235294 0 0 0 0 0.478431 0 0 0 0 0.27451 0 0 0 0.4 0"/>
<feBlend mode="normal" in2="effect2_innerShadow_270_3" result="effect3_innerShadow_270_3"/>
</filter>
</defs>
</svg>
