<svg width="53" height="50" viewBox="0 0 53 50" fill="none" xmlns="http://www.w3.org/2000/svg">
<g id="Renuable Energy">
<g id="pngwing 1 (Traced)" filter="url(#filter0_dii_5_202)">
<path fill-rule="evenodd" clip-rule="evenodd" d="M35.2787 2.18769C34.9453 2.58665 33.7313 3.49166 33.0247 3.86802C31.4193 4.72316 29.8601 5.24675 25.5976 6.3622C21.5688 7.41652 20.3714 7.78816 18.2533 8.64188C16.7538 9.24623 14.8813 10.2352 13.7059 11.0434C11.5335 12.5373 9.46715 14.6786 8.31783 16.6268C6.39997 19.8778 6.66553 23.0745 9.07198 25.7054C10.7225 27.5099 13.2925 28.9404 15.338 29.1932L15.7497 29.2441L14.625 29.8594C11.3958 31.6264 8.54719 32.8011 6.29965 33.2926C5.8365 33.3939 4.99792 33.502 4.2423 33.5577C3.54074 33.6095 2.87185 33.6819 2.7559 33.7186C2.45635 33.8136 2.02274 34.2423 2.00735 34.4587C1.97304 34.94 2.05344 35.1647 2.36352 35.4543C2.68801 35.7572 3.11536 35.9383 3.63373 35.9923C4.90682 36.125 8.87044 34.5263 13.5004 32.0125C15.4387 30.9602 16.4338 30.3602 17.8175 29.4096C23.7702 25.32 29.0414 19.5067 32.1138 13.643C32.276 13.3333 32.4254 13.0936 32.4457 13.1102C32.4963 13.1517 31.8955 14.7685 31.4032 15.9161C30.7482 17.4427 30.0409 18.8262 29.1312 20.3599C26.7795 24.3247 23.9166 27.6612 20.3896 30.5475L18.9616 31.7161L19.3088 32.085C20.5291 33.3818 22.4726 34.2382 25.1246 34.6475C26.0846 34.7956 27.7169 34.7513 28.6425 34.552C32.8156 33.6534 36.1268 30.6068 37.7698 26.154C38.6413 23.7923 38.9964 21.5878 39 18.516C39.0046 14.5697 38.3573 10.7003 36.9063 5.99987C36.4762 4.60643 35.6012 2.0854 35.5198 2.0049C35.4933 1.97859 35.3847 2.06084 35.2787 2.18769Z" fill="#02FA39"/>
</g>
</g>
<defs>
<filter id="filter0_dii_5_202" x="-7" y="-7" width="62" height="57" filterUnits="userSpaceOnUse" color-interpolation-filters="sRGB">
<feFlood flood-opacity="0" result="BackgroundImageFix"/>
<feColorMatrix in="SourceAlpha" type="matrix" values="0 0 0 0 0 0 0 0 0 0 0 0 0 0 0 0 0 0 127 0" result="hardAlpha"/>
<feOffset dx="6" dy="6"/>
<feGaussianBlur stdDeviation="4"/>
<feComposite in2="hardAlpha" operator="out"/>
<feColorMatrix type="matrix" values="0 0 0 0 0.0235294 0 0 0 0 0.478431 0 0 0 0 0.27451 0 0 0 0.3 0"/>
<feBlend mode="normal" in2="BackgroundImageFix" result="effect1_dropShadow_5_202"/>
<feBlend mode="normal" in="SourceGraphic" in2="effect1_dropShadow_5_202" result="shape"/>
<feColorMatrix in="SourceAlpha" type="matrix" values="0 0 0 0 0 0 0 0 0 0 0 0 0 0 0 0 0 0 127 0" result="hardAlpha"/>
<feOffset dx="-10" dy="-11"/>
<feGaussianBlur stdDeviation="4.5"/>
<feComposite in2="hardAlpha" operator="arithmetic" k2="-1" k3="1"/>
<feColorMatrix type="matrix" values="0 0 0 0 0.0235294 0 0 0 0 0.478431 0 0 0 0 0.27451 0 0 0 0.5 0"/>
<feBlend mode="normal" in2="shape" result="effect2_innerShadow_5_202"/>
<feColorMatrix in="SourceAlpha" type="matrix" values="0 0 0 0 0 0 0 0 0 0 0 0 0 0 0 0 0 0 127 0" result="hardAlpha"/>
<feOffset dx="16" dy="12"/>
<feGaussianBlur stdDeviation="8"/>
<feComposite in2="hardAlpha" operator="arithmetic" k2="-1" k3="1"/>
<feColorMatrix type="matrix" values="0 0 0 0 0.0235294 0 0 0 0 0.478431 0 0 0 0 0.27451 0 0 0 0.5 0"/>
<feBlend mode="normal" in2="effect2_innerShadow_5_202" result="effect3_innerShadow_5_202"/>
</filter>
</defs>
</svg>
